<svg xmlns="http://www.w3.org/2000/svg" viewBox="0 0 236.36 115.63"><defs><style>.cls-1{isolation:isolate;}.cls-2{fill:#ffdb00;}.cls-3{fill:#c8d400;}.cls-4,.cls-6{mix-blend-mode:multiply;}.cls-5{fill:#39bddf;}.cls-6{fill:#dd282e;}</style></defs><title>Recurso 1</title><g class="cls-1"><g id="Capa_2" data-name="Capa 2"><g id="Capa_1-2" data-name="Capa 1"><path class="cls-2" d="M212.49,103.74A19.82,19.82,0,0,0,211,96.13a19.22,19.22,0,0,0-4.11-6.22,19.75,19.75,0,0,0-6.13-4.2,19.21,19.21,0,0,0-15.09,0,19.74,19.74,0,0,0-6.16,4.16A19.23,19.23,0,0,0,175.39,96a19.55,19.55,0,0,0-1.54,7.56h0A11.35,11.35,0,0,1,162,115.19a11.31,11.31,0,0,1-8.48-3.32,11.7,11.7,0,0,1-3.23-8.37h0c0-.06,0-.13,0-.19h0a42.95,42.95,0,0,1,85.89.46h0a11.4,11.4,0,0,1-11.95,11.86,11.33,11.33,0,0,1-8.48-3.36,11.76,11.76,0,0,1-3.21-8.53"/><path class="cls-3" d="M100.21,84.58A42.29,42.29,0,1,0,57.92,42.29,42.29,42.29,0,0,0,100.21,84.58Zm-.1-22.23a20.16,20.16,0,1,1,20.16-20.16A20.16,20.16,0,0,1,100.11,62.35Z"/><g class="cls-4"><path class="cls-5" d="M115.16,104.63a12.35,12.35,0,0,1-3.42,8,10.58,10.58,0,0,1-7.85,3,10.78,10.78,0,0,1-8.09-3.18,11.26,11.26,0,0,1-3.09-8.19,32.25,32.25,0,0,1,32.74-32.78h19.38A10,10,0,0,0,155,61.32a10.77,10.77,0,0,1,3.17-8.08,11.21,11.21,0,0,1,8.16-3.08,10.58,10.58,0,0,1,11.16,11.16A31.21,31.21,0,0,1,168,84.39,32.35,32.35,0,0,1,144.79,94H125.43a9.5,9.5,0,0,0-7,2.85A12.1,12.1,0,0,0,115.16,104.63Z"/></g><path class="cls-6" d="M75.23,96.39a10.84,10.84,0,0,0-8-3.06H42.13a21.19,21.19,0,0,1-3.29-.27L71.2,60.72C74.33,57.41,76,55.25,76,51.6A10.88,10.88,0,0,0,72.69,44,41,41,0,0,0,42.13,31q-17.84,0-30,12.17T0,73.26q0,17.88,12.14,30.13t30,12.25H67.22a10.69,10.69,0,0,0,8-3.14,11.11,11.11,0,0,0,3.06-8.1A10.84,10.84,0,0,0,75.23,96.39ZM20.91,79.55a23.23,23.23,0,0,1,8.57-26.72,22.66,22.66,0,0,1,20.34-2.65l.74.25L21.17,80.3Z"/><path class="cls-3" d="M154.67,43.5l-.42,0a4.38,4.38,0,0,1-2.89-1.29,1.4,1.4,0,0,1-.43-1,1.45,1.45,0,0,1,2.49-1,1.52,1.52,0,0,0,1,.44,1.72,1.72,0,0,0,1.15-.26,1,1,0,0,0,.44-.76,1.23,1.23,0,0,0-.08-.62.69.69,0,0,0-.25-.26,2.26,2.26,0,0,0-1.11-.36A4.51,4.51,0,0,1,151.55,37a3.9,3.9,0,0,1,.42-5.77,4.5,4.5,0,0,1,3.21-.93,4.33,4.33,0,0,1,1.72.47,5.19,5.19,0,0,1,1.13.82,1.4,1.4,0,0,1,.46,1,1.39,1.39,0,0,1-.4,1,1.35,1.35,0,0,1-1,.45,1.42,1.42,0,0,1-1-.38,1.7,1.7,0,0,0-1.07-.52,1.74,1.74,0,0,0-1.15.25,1,1,0,0,0-.44.77.94.94,0,0,0,.33.82,1.75,1.75,0,0,0,1.1.42,5,5,0,0,1,2.5.83,3.62,3.62,0,0,1,1.64,3.51,3.76,3.76,0,0,1-1.49,2.79A4.38,4.38,0,0,1,154.67,43.5Z"/><path class="cls-3" d="M166.59,43.35a1.41,1.41,0,0,1-1-.43,1.38,1.38,0,0,1-.43-1V38.66l-3.77-6a1.41,1.41,0,0,1-.18-1.1,1.43,1.43,0,0,1,.64-.91,1.45,1.45,0,0,1,2,.46l2.76,4.42,2.76-4.42a1.45,1.45,0,0,1,2-.46h0a1.42,1.42,0,0,1,.64.91,1.41,1.41,0,0,1-.18,1.09l-3.78,6V41.9a1.45,1.45,0,0,1-1.45,1.46Z"/><path class="cls-3" d="M176,43.35a1.46,1.46,0,0,1-1.45-1.46v-10a1.41,1.41,0,0,1,.27-.84,1.43,1.43,0,0,1,.7-.53,1.47,1.47,0,0,1,.88,0,1.44,1.44,0,0,1,.74.49l5.48,6.83V31.85a1.41,1.41,0,0,1,.43-1,1.48,1.48,0,0,1,2.05,0,1.43,1.43,0,0,1,.42,1v10a1.45,1.45,0,0,1-1,1.38,1.5,1.5,0,0,1-.88,0,1.37,1.37,0,0,1-.74-.49L177.42,36V41.9A1.46,1.46,0,0,1,176,43.35Z"/><path class="cls-3" d="M195.78,43.35H190a1.46,1.46,0,0,1-1.45-1.46v-10A1.46,1.46,0,0,1,190,30.4h5.82a1.45,1.45,0,0,1,0,2.9H191.4v2.1h3.24a1.45,1.45,0,0,1,0,2.9H191.4v2.15h4.37a1.45,1.45,0,0,1,1.45,1.45,1.46,1.46,0,0,1-1.45,1.46Z"/><path class="cls-3" d="M207.93,43.35h-.2a1.46,1.46,0,0,1-1-.56l-2.67-3.54h-1V41.9a1.38,1.38,0,0,1-.43,1,1.44,1.44,0,0,1-2,0,1.38,1.38,0,0,1-.43-1v-10a1.44,1.44,0,0,1,1.46-1.45h3.51a4.43,4.43,0,0,1,4.39,4.42,4.41,4.41,0,0,1-2.28,3.87L209.08,41a1.36,1.36,0,0,1,.28,1.08,1.4,1.4,0,0,1-.55,1A1.44,1.44,0,0,1,207.93,43.35Zm-4.78-7h2a1.48,1.48,0,0,0,1.07-.45,1.52,1.52,0,0,0-1.06-2.59h-2.05Z"/><path class="cls-3" d="M218.3,43.51a6.64,6.64,0,0,1-4.69-11.34,6.65,6.65,0,0,1,8.91-.43,1.46,1.46,0,0,1-.78,2.57,1.42,1.42,0,0,1-1.07-.32,3.74,3.74,0,1,0-.34,6V37.86a1.38,1.38,0,0,1,.43-1,1.45,1.45,0,0,1,2.05,0,1.38,1.38,0,0,1,.43,1v2.85a1.42,1.42,0,0,1-.47,1.07A6.48,6.48,0,0,1,218.3,43.51Z"/><path class="cls-3" d="M230.91,43.35a1.41,1.41,0,0,1-1-.43,1.38,1.38,0,0,1-.43-1V38.66l-3.77-6a1.45,1.45,0,1,1,2.46-1.54l2.76,4.42,2.76-4.42a1.45,1.45,0,0,1,2-.46h0a1.43,1.43,0,0,1,.64.91,1.41,1.41,0,0,1-.18,1.09l-3.78,6V41.9a1.45,1.45,0,0,1-1.45,1.46Z"/><path class="cls-3" d="M158.75,26.35h-5.82a1.47,1.47,0,0,1-1.46-1.46v-10a1.46,1.46,0,0,1,1.46-1.45h5.82a1.45,1.45,0,0,1,0,2.9h-4.37v2.1h3.24a1.39,1.39,0,0,1,1,.43,1.37,1.37,0,0,1,.43,1,1.46,1.46,0,0,1-1.46,1.46h-3.24v2.15h4.37a1.45,1.45,0,0,1,1.46,1.45,1.47,1.47,0,0,1-1.46,1.46Z"/><path class="cls-3" d="M168.22,26.52a6.66,6.66,0,0,1-6.64-6.64,6.64,6.64,0,1,1,11.34,4.69A6.43,6.43,0,0,1,168.22,26.52Zm0-10.38a3.73,3.73,0,0,0-3.74,3.73,3.74,3.74,0,1,0,7.47,0,3.73,3.73,0,0,0-3.73-3.73Z"/><path class="cls-3" d="M181.22,26.5l-.42,0a4.38,4.38,0,0,1-2.89-1.28,1.41,1.41,0,0,1-.43-1,1.45,1.45,0,0,1,2.49-1,1.52,1.52,0,0,0,1,.44,1.73,1.73,0,0,0,1.15-.26,1,1,0,0,0,.44-.76,1.24,1.24,0,0,0-.08-.63.69.69,0,0,0-.25-.26,2.23,2.23,0,0,0-1.11-.36A4.52,4.52,0,0,1,178.1,20a3.9,3.9,0,0,1,.42-5.77,4.52,4.52,0,0,1,3.21-.93,4.33,4.33,0,0,1,1.72.47,5.21,5.21,0,0,1,1.13.82,1.4,1.4,0,0,1,.46,1,1.38,1.38,0,0,1-.4,1,1.35,1.35,0,0,1-1,.45,1.44,1.44,0,0,1-1-.38,1.7,1.7,0,0,0-1.07-.52,1.75,1.75,0,0,0-1.15.25,1,1,0,0,0-.44.77.94.94,0,0,0,.33.82,1.75,1.75,0,0,0,1.1.42,5,5,0,0,1,2.5.83,3.62,3.62,0,0,1,1.64,3.51A3.76,3.76,0,0,1,184,25.57,4.38,4.38,0,0,1,181.22,26.5Z"/><path class="cls-3" d="M194.27,26.51a6.66,6.66,0,0,1-6.64-6.64,6.64,6.64,0,0,1,10.86-5.12,1.46,1.46,0,0,1-.78,2.57,1.44,1.44,0,0,1-1.07-.32,3.73,3.73,0,0,0-6.11,2.87,3.74,3.74,0,0,0,6.25,2.77h0a1.45,1.45,0,0,1,2,.1,1.4,1.4,0,0,1,.37,1.05,1.38,1.38,0,0,1-.48,1A6.44,6.44,0,0,1,194.27,26.51Z"/></g></g></g></svg>